<?xml version="1.0" standalone="no"?>
<!DOCTYPE svg PUBLIC "-//W3C//DTD SVG 20010904//EN"
 "http://www.w3.org/TR/2001/REC-SVG-20010904/DTD/svg10.dtd">
<svg version="1.0" xmlns="http://www.w3.org/2000/svg"
 width="500.000000pt" height="500.000000pt" viewBox="0 0 500.000000 500.000000"
 preserveAspectRatio="xMidYMid meet">

<g transform="translate(0.000000,500.000000) scale(0.100000,-0.100000)"
fill="#000000" stroke="none">
<path d="M2420 3920 c-18 -12 -2 -12 25 0 13 6 15 9 5 9 -8 0 -22 -4 -30 -9z"/>
<path d="M2555 3920 c-3 -6 1 -7 9 -4 18 7 21 14 7 14 -6 0 -13 -4 -16 -10z"/>
<path d="M2600 3910 c8 -5 20 -10 25 -10 6 0 3 5 -5 10 -8 5 -19 10 -25 10 -5
0 -3 -5 5 -10z"/>
<path d="M2344 3894 c-18 -14 -18 -14 6 -3 31 14 36 19 24 19 -6 0 -19 -7 -30
-16z"/>
<path d="M2640 3896 c0 -2 7 -7 16 -10 8 -3 12 -2 9 4 -6 10 -25 14 -25 6z"/>
<path d="M2698 3857 c12 -13 20 -27 17 -30 -3 -4 -2 -5 2 -2 3 3 16 -3 27 -12
12 -10 3 2 -19 25 -21 23 -41 42 -44 42 -2 0 5 -10 17 -23z"/>
<path d="M2278 3843 c-8 -10 -18 -25 -22 -33 -4 -8 0 -6 8 5 9 11 24 26 33 33
9 6 12 12 6 12 -5 0 -17 -8 -25 -17z"/>
<path d="M2210 3759 c-6 -11 -10 -25 -8 -30 2 -5 8 4 15 21 13 34 9 40 -7 9z"/>
<path d="M2182 3650 c0 -19 2 -27 5 -17 2 9 2 25 0 35 -3 9 -5 1 -5 -18z"/>
<path d="M2812 3650 c0 -19 2 -27 5 -17 2 9 2 25 0 35 -3 9 -5 1 -5 -18z"/>
<path d="M2182 3570 c0 -14 2 -19 5 -12 2 6 2 18 0 25 -3 6 -5 1 -5 -13z"/>
<path d="M2811 3574 c0 -11 3 -14 6 -6 3 7 2 16 -1 19 -3 4 -6 -2 -5 -13z"/>
<path d="M2201 3492 c6 -18 15 -35 20 -38 5 -3 4 7 -3 23 -17 41 -30 53 -17
15z"/>
<path d="M2786 3485 c-9 -26 -7 -32 5 -12 6 10 9 21 6 23 -2 3 -7 -2 -11 -11z"/>
<path d="M2258 3402 c19 -23 39 -45 45 -49 7 -4 -3 12 -21 35 -19 23 -39 45
-45 49 -7 4 3 -12 21 -35z"/>
<path d="M2733 3413 c4 -3 -1 -16 -10 -27 -18 -21 -18 -21 4 -2 20 16 23 36 6
36 -4 0 -3 -3 0 -7z"/>
<path d="M2673 3353 c0 -9 4 -10 14 -2 7 6 13 12 13 14 0 1 -6 2 -13 2 -8 0
-14 -6 -14 -14z"/>
<path d="M2335 3340 c3 -5 8 -10 11 -10 2 0 4 5 4 10 0 6 -5 10 -11 10 -5 0
-7 -4 -4 -10z"/>
<path d="M2585 3310 c-13 -6 -15 -9 -5 -9 8 0 22 4 30 9 18 12 2 12 -25 0z"/>
<path d="M2408 3303 c6 -2 18 -2 25 0 6 3 1 5 -13 5 -14 0 -19 -2 -12 -5z"/>
<path d="M2473 3293 c15 -2 37 -2 50 0 12 2 0 4 -28 4 -27 0 -38 -2 -22 -4z"/>
<path d="M1333 3203 c20 -2 54 -2 75 0 20 2 3 4 -38 4 -41 0 -58 -2 -37 -4z"/>
<path d="M1493 3193 c9 -2 23 -2 30 0 6 3 -1 5 -18 5 -16 0 -22 -2 -12 -5z"/>
<path d="M1800 2990 l0 -210 238 2 237 3 -232 2 -233 3 0 200 0 200 264 0
c244 0 265 -1 269 -17 4 -14 5 -12 6 5 l1 22 -275 0 -275 0 0 -210z"/>
<path d="M2480 2990 l0 -210 88 2 87 2 -82 3 -83 4 0 199 0 200 96 0 c60 0 93
-4 89 -10 -4 -6 1 -7 11 -3 13 5 15 3 9 -8 -4 -8 -4 -11 0 -6 5 4 20 -3 34
-15 14 -13 10 -6 -8 15 l-35 37 -103 0 -103 0 0 -210z"/>
<path d="M2930 3193 c0 -5 41 -7 91 -5 68 3 94 0 100 -10 7 -10 9 -9 9 5 0 15
-11 17 -100 17 -55 0 -100 -3 -100 -7z"/>
<path d="M3451 3182 c-7 -14 -6 -19 4 -19 8 0 13 5 12 10 -1 6 9 14 23 18 l25
7 -27 1 c-17 1 -31 -6 -37 -17z"/>
<path d="M3595 3193 c60 -3 83 -8 93 -20 6 -9 12 -12 12 -7 0 26 -27 34 -104
32 l-81 -2 80 -3z"/>
<path d="M1536 3182 c-2 -4 3 -8 12 -8 9 -1 26 -4 37 -8 13 -5 11 -2 -5 8 -29
18 -37 19 -44 8z"/>
<path d="M1137 3155 c-39 -27 -47 -42 -23 -42 8 0 12 5 10 12 -3 6 12 21 33
33 21 12 33 22 28 22 -6 0 -27 -11 -48 -25z"/>
<path d="M3120 2975 l0 -184 -77 -4 -78 -3 83 -2 82 -2 0 190 c0 105 -2 190
-5 190 -3 0 -5 -83 -5 -185z"/>
<path d="M1611 3147 c2 -1 13 -9 24 -17 19 -14 19 -14 6 3 -7 9 -18 17 -24 17
-6 0 -8 -1 -6 -3z"/>
<path d="M2340 3135 c0 -12 -26 -15 -152 -18 l-153 -3 158 -2 c151 -2 157 -1
157 18 0 11 -2 20 -5 20 -3 0 -5 -7 -5 -15z"/>
<path d="M1294 3116 c-7 -16 -8 -29 -2 -38 8 -10 9 -9 4 4 -3 11 2 21 14 28
30 16 113 12 140 -7 l25 -17 -20 23 c-17 20 -27 22 -82 19 -35 -2 -64 0 -66 4
-1 4 -7 -3 -13 -16z"/>
<path d="M3411 3113 c-10 -26 -10 -27 4 -9 8 11 15 23 15 28 0 15 -7 8 -19
-19z"/>
<path d="M1624 3113 c16 -20 36 -23 36 -6 0 4 -3 3 -7 0 -3 -4 -16 1 -27 10
-21 18 -21 18 -2 -4z"/>
<path d="M2755 3110 c-3 -5 -1 -10 4 -10 6 0 11 5 11 10 0 6 -2 10 -4 10 -3 0
-8 -4 -11 -10z"/>
<path d="M1094 3089 c-3 -6 -2 -15 3 -20 5 -5 9 -1 9 11 0 23 -2 24 -12 9z"/>
<path d="M2774 3088 c-4 -7 -4 -10 1 -6 4 4 15 2 24 -5 14 -11 14 -10 2 6 -16
20 -18 21 -27 5z"/>
<path d="M3730 3090 c0 -5 5 -10 11 -10 5 0 7 5 4 10 -3 6 -8 10 -11 10 -2 0
-4 -4 -4 -10z"/>
<path d="M3370 3038 c-12 -22 -12 -22 6 -6 10 10 15 20 12 24 -4 3 -12 -5 -18
-18z"/>
<path d="M1380 3040 c25 -8 87 -13 79 -6 -2 2 -26 6 -54 9 -34 4 -42 3 -25 -3z"/>
<path d="M2930 3026 c0 -14 4 -27 8 -30 5 -3 6 8 4 25 -5 35 -12 38 -12 5z"/>
<path d="M1107 3029 c7 -7 15 -10 18 -7 3 3 -2 9 -12 12 -14 6 -15 5 -6 -5z"/>
<path d="M1488 3023 c7 -3 16 -2 19 1 4 3 -2 6 -13 5 -11 0 -14 -3 -6 -6z"/>
<path d="M2288 2994 c3 -26 1 -35 -7 -30 -6 4 -11 2 -11 -3 0 -6 7 -11 15 -11
11 0 15 11 15 40 0 22 -4 40 -8 40 -4 0 -6 -16 -4 -36z"/>
<path d="M3781 3000 c6 -16 15 -30 20 -30 5 0 3 14 -6 30 -9 17 -17 30 -20 30
-2 0 1 -13 6 -30z"/>
<path d="M1538 3013 c7 -3 16 -2 19 1 4 3 -2 6 -13 5 -11 0 -14 -3 -6 -6z"/>
<path d="M2700 3003 c0 -6 8 -17 18 -24 16 -13 16 -13 2 6 -8 11 -16 22 -17
24 -2 2 -3 0 -3 -6z"/>
<path d="M2669 2968 c4 -28 6 -29 9 -9 2 13 0 27 -5 32 -6 6 -7 -3 -4 -23z"/>
<path d="M2887 2989 c6 -6 10 -17 9 -23 -2 -6 -1 -8 1 -3 3 4 9 4 15 1 5 -3 4
3 -4 15 -7 12 -17 21 -22 21 -6 0 -5 -5 1 -11z"/>
<path d="M1630 2986 c0 -2 8 -10 18 -17 15 -13 16 -12 3 4 -13 16 -21 21 -21
13z"/>
<path d="M3326 2963 c-6 -14 -5 -15 5 -6 7 7 10 15 7 18 -3 3 -9 -2 -12 -12z"/>
<path d="M3500 2959 c-7 -11 -10 -23 -7 -25 2 -2 9 7 15 21 14 30 7 33 -8 4z"/>
<path d="M1278 2958 c5 -5 16 -8 23 -6 8 3 3 7 -10 11 -17 4 -21 3 -13 -5z"/>
<path d="M2048 2953 c6 -2 18 -2 25 0 6 3 1 5 -13 5 -14 0 -19 -2 -12 -5z"/>
<path d="M2745 2950 c3 -5 8 -10 11 -10 2 0 4 5 4 10 0 6 -5 10 -11 10 -5 0
-7 -4 -4 -10z"/>
<path d="M1674 2927 c1 -15 6 -30 9 -34 11 -10 8 30 -3 47 -7 11 -8 8 -6 -13z"/>
<path d="M1418 2933 c7 -3 16 -2 19 1 4 3 -2 6 -13 5 -11 0 -14 -3 -6 -6z"/>
<path d="M3305 2929 c-4 -6 -5 -12 -2 -15 2 -3 7 2 10 11 7 17 1 20 -8 4z"/>
<path d="M2780 2926 c0 -2 8 -10 18 -17 15 -13 16 -12 3 4 -13 16 -21 21 -21
13z"/>
<path d="M3840 2901 c0 -6 4 -13 10 -16 6 -3 7 1 4 9 -7 18 -14 21 -14 7z"/>
<path d="M1080 2893 c0 -5 33 -7 72 -5 125 4 137 9 31 10 -57 1 -103 -1 -103
-5z"/>
<path d="M3280 2880 c-6 -11 -8 -20 -6 -20 3 0 10 9 16 20 6 11 8 20 6 20 -3
0 -10 -9 -16 -20z"/>
<path d="M1480 2880 c0 -5 -15 -14 -32 -19 -24 -7 -27 -9 -12 -10 12 -1 32 8
45 19 13 10 18 19 12 20 -7 0 -13 -4 -13 -10z"/>
<path d="M1653 2856 c-30 -30 -47 -42 -63 -49 -13 -5 -13 -6 0 -6 16 -1 98 64
90 71 -3 2 -15 -5 -27 -16z"/>
<path d="M1095 2860 c3 -5 20 -19 38 -31 l32 -21 -34 31 c-34 31 -47 39 -36
21z"/>
<path d="M2038 2863 c7 -3 16 -2 19 1 4 3 -2 6 -13 5 -11 0 -14 -3 -6 -6z"/>
<path d="M2098 2863 c12 -2 32 -2 45 0 12 2 2 4 -23 4 -25 0 -35 -2 -22 -4z"/>
<path d="M2250 2864 c34 -7 110 -9 110 -2 0 5 -28 7 -62 7 -35 -1 -56 -3 -48
-5z"/>
<path d="M3869 2851 c6 -10 7 -22 3 -26 -4 -5 -1 -5 6 -1 9 5 9 12 2 27 -6 10
-13 19 -16 19 -2 0 0 -8 5 -19z"/>
<path d="M3250 2830 c-6 -11 -8 -20 -6 -20 3 0 10 9 16 20 6 11 8 20 6 20 -3
0 -10 -9 -16 -20z"/>
<path d="M3488 2843 c7 -3 16 -2 19 1 4 3 -2 6 -13 5 -11 0 -14 -3 -6 -6z"/>
<path d="M2893 2813 c24 -26 64 -43 51 -21 -3 5 -9 6 -14 3 -5 -3 -15 3 -22
13 -7 10 -20 22 -28 27 -8 4 -3 -5 13 -22z"/>
<path d="M3691 2824 c-1 -5 5 -18 12 -27 11 -15 27 -17 117 -14 l105 3 -109 2
c-93 2 -107 4 -102 18 3 8 2 13 -3 9 -5 -3 -12 1 -14 7 -3 7 -6 8 -6 2z"/>
<path d="M3420 2795 c-7 -9 -8 -15 -2 -15 5 0 12 7 16 15 3 8 4 15 2 15 -2 0
-9 -7 -16 -15z"/>
<path d="M3223 2788 c-2 -5 31 -7 74 -7 82 2 75 6 -15 11 -30 2 -56 0 -59 -4z"/>
<path d="M1430 2780 l-55 -7 50 -1 c28 0 59 3 70 8 23 10 14 10 -65 0z"/>
<path d="M2308 2783 c12 -2 30 -2 40 0 9 3 -1 5 -23 4 -22 0 -30 -2 -17 -4z"/>
<path d="M1298 2773 c12 -2 32 -2 45 0 12 2 2 4 -23 4 -25 0 -35 -2 -22 -4z"/>
<path d="M1030 2659 c0 -5 5 -7 10 -4 6 3 10 8 10 11 0 2 -4 4 -10 4 -5 0 -10
-5 -10 -11z"/>
<path d="M2355 2660 c4 -6 11 -8 16 -5 14 9 11 15 -7 15 -8 0 -12 -5 -9 -10z"/>
<path d="M3962 2650 c0 -14 2 -19 5 -12 2 6 2 18 0 25 -3 6 -5 1 -5 -13z"/>
<path d="M2328 2600 c-21 -52 -14 -52 12 0 11 22 17 40 13 40 -5 0 -16 -18
-25 -40z"/>
<path d="M1022 2533 l-2 -43 53 2 52 2 -47 3 c-46 4 -47 5 -51 41 l-4 37 -1
-42z"/>
<path d="M3970 2535 l0 -35 -307 -3 -308 -2 313 -3 312 -2 0 40 c0 22 -2 40
-5 40 -3 0 -5 -16 -5 -35z"/>
<path d="M2280 2510 c-6 -11 -8 -20 -6 -20 3 0 10 9 16 20 6 11 8 20 6 20 -3
0 -10 -9 -16 -20z"/>
<path d="M2715 2506 c9 -15 31 -54 48 -87 17 -32 33 -57 35 -55 5 6 -55 116
-80 146 l-20 25 17 -29z"/>
<path d="M1292 2493 c70 -2 187 -2 260 0 73 1 16 3 -127 3 -143 0 -203 -2
-133 -3z"/>
<path d="M1913 2493 c9 -2 23 -2 30 0 6 3 -1 5 -18 5 -16 0 -22 -2 -12 -5z"/>
<path d="M2988 2493 c12 -2 32 -2 45 0 12 2 2 4 -23 4 -25 0 -35 -2 -22 -4z"/>
<path d="M3258 2493 c12 -2 32 -2 45 0 12 2 2 4 -23 4 -25 0 -35 -2 -22 -4z"/>
<path d="M2055 2470 c-3 -5 -1 -10 4 -10 6 0 11 5 11 10 0 6 -2 10 -4 10 -3 0
-8 -4 -11 -10z"/>
<path d="M2940 2461 c0 -6 4 -13 10 -16 6 -3 7 1 4 9 -7 18 -14 21 -14 7z"/>
<path d="M2031 2428 c-14 -23 -14 -23 8 -4 22 20 25 26 13 26 -4 0 -13 -10
-21 -22z"/>
<path d="M2240 2441 c0 -7 -5 -9 -12 -5 -6 4 -8 3 -5 -3 4 -6 -5 -32 -19 -57
-14 -25 -24 -46 -21 -46 9 0 68 112 63 118 -3 3 -6 0 -6 -7z"/>
<path d="M2477 2397 c-17 -31 -17 -31 1 -11 17 20 20 20 30 5 10 -12 10 -11 1
9 -7 14 -12 26 -13 27 -1 1 -9 -13 -19 -30z"/>
<path d="M2970 2413 c0 -6 8 -17 18 -24 16 -13 16 -13 2 6 -8 11 -16 22 -17
24 -2 2 -3 0 -3 -6z"/>
<path d="M2000 2380 c-6 -11 -8 -20 -6 -20 3 0 10 9 16 20 6 11 8 20 6 20 -3
0 -10 -9 -16 -20z"/>
<path d="M2530 2346 c0 -2 8 -10 18 -17 15 -13 16 -12 3 4 -13 16 -21 21 -21
13z"/>
<path d="M3010 2336 c0 -2 7 -9 15 -16 13 -11 14 -10 9 4 -5 14 -24 23 -24 12z"/>
<path d="M2415 2294 c-9 -15 -12 -23 -6 -20 11 7 35 46 28 46 -3 0 -12 -12
-22 -26z"/>
<path d="M2825 2310 c3 -5 8 -10 11 -10 2 0 4 5 4 10 0 6 -5 10 -11 10 -5 0
-7 -4 -4 -10z"/>
<path d="M1935 2267 c-35 -57 -46 -77 -41 -77 7 0 69 100 65 105 -3 2 -13 -11
-24 -28z"/>
<path d="M2145 2272 c-10 -7 -18 -32 -10 -32 2 0 9 9 15 20 12 22 11 24 -5 12z"/>
<path d="M2850 2264 c0 -5 7 -18 15 -28 8 -11 15 -16 15 -10 0 5 -7 18 -15 28
-8 11 -15 16 -15 10z"/>
<path d="M2381 2233 c-10 -26 -10 -27 4 -9 8 11 15 23 15 28 0 15 -7 8 -19
-19z"/>
<path d="M2115 2220 c-4 -6 -11 -8 -16 -5 -5 3 -6 -1 -3 -10 4 -8 -2 -27 -11
-41 -9 -15 -12 -23 -6 -20 12 8 55 86 47 86 -3 0 -8 -5 -11 -10z"/>
<path d="M3091 2210 c0 -8 13 -31 31 -50 l30 -35 -24 35 c-14 19 -27 42 -31
50 -5 13 -5 13 -6 0z"/>
<path d="M1874 2168 c-4 -7 -14 -24 -22 -38 -14 -24 -13 -24 3 -5 20 24 37 55
31 55 -3 0 -8 -6 -12 -12z"/>
<path d="M2900 2171 c0 -5 7 -15 17 -22 15 -13 15 -12 4 9 -12 23 -21 28 -21
13z"/>
<path d="M2650 2154 c0 -5 7 -18 15 -28 8 -11 15 -16 15 -10 0 5 -7 18 -15 28
-8 11 -15 16 -15 10z"/>
<path d="M3150 2113 c0 -7 4 -14 10 -18 5 -3 7 -12 4 -19 -7 -18 12 -30 22
-15 5 8 3 9 -6 4 -9 -6 -12 -4 -8 6 3 8 0 23 -8 34 -8 10 -14 14 -14 8z"/>
<path d="M2680 2096 c0 -2 7 -9 15 -16 13 -11 14 -10 9 4 -5 14 -24 23 -24 12z"/>
<path d="M2020 2050 c-6 -11 -8 -20 -6 -20 3 0 10 9 16 20 6 11 8 20 6 20 -3
0 -10 -9 -16 -20z"/>
<path d="M2710 2051 c0 -6 4 -13 10 -16 6 -3 7 1 4 9 -7 18 -14 21 -14 7z"/>
<path d="M2530 2031 c0 -6 4 -13 10 -16 6 -3 7 1 4 9 -7 18 -14 21 -14 7z"/>
<path d="M2465 2004 c-9 -15 -12 -23 -6 -20 11 7 35 46 28 46 -3 0 -12 -12
-22 -26z"/>
<path d="M1776 2003 c-6 -14 -5 -15 5 -6 7 7 10 15 7 18 -3 3 -9 -2 -12 -12z"/>
<path d="M2246 2003 c-6 -14 -5 -15 5 -6 7 7 10 15 7 18 -3 3 -9 -2 -12 -12z"/>
<path d="M3210 2015 c0 -5 10 -21 21 -35 13 -17 17 -18 10 -5 -17 33 -31 51
-31 40z"/>
<path d="M3022 1961 c12 -23 23 -39 25 -38 5 5 -27 66 -37 72 -5 3 0 -12 12
-34z"/>
<path d="M2769 1957 c24 -44 26 -51 9 -41 -7 4 -9 3 -5 -1 4 -5 14 -10 22 -11
13 -2 13 1 1 24 -8 15 -22 36 -31 47 -11 13 -9 7 4 -18z"/>
<path d="M2218 1952 c-12 -20 -14 -32 -6 -42 8 -13 9 -12 5 1 -3 9 1 27 10 38
8 12 13 24 11 26 -2 3 -11 -8 -20 -23z"/>
<path d="M1966 1953 c-6 -14 -5 -15 5 -6 7 7 10 15 7 18 -3 3 -9 -2 -12 -12z"/>
<path d="M2422 1933 c-13 -19 -21 -37 -19 -39 3 -3 14 12 26 32 28 47 23 53
-7 7z"/>
<path d="M2576 1947 c3 -10 9 -15 12 -12 3 3 0 11 -7 18 -10 9 -11 8 -5 -6z"/>
<path d="M3270 1910 c12 -16 24 -30 26 -30 3 0 -4 14 -16 30 -12 17 -24 30
-26 30 -3 0 4 -13 16 -30z"/>
<path d="M1945 1919 c-4 -6 -5 -12 -2 -15 2 -3 7 2 10 11 7 17 1 20 -8 4z"/>
<path d="M1724 1912 c3 -5 0 -12 -6 -15 -7 -2 -10 -7 -7 -11 3 -4 12 0 18 8 9
11 9 16 0 22 -7 4 -9 3 -5 -4z"/>
<path d="M2600 1901 c0 -6 4 -13 10 -16 6 -3 7 1 4 9 -7 18 -14 21 -14 7z"/>
<path d="M2813 1875 c0 -8 4 -12 9 -9 5 3 6 10 3 15 -9 13 -12 11 -12 -6z"/>
<path d="M2378 1858 c-10 -10 -16 -18 -13 -18 2 0 -9 -24 -26 -52 -17 -29 -26
-48 -20 -43 13 13 82 127 79 130 -2 1 -11 -7 -20 -17z"/>
<path d="M2160 1855 c-7 -9 -11 -17 -9 -20 3 -2 10 5 17 15 14 24 10 26 -8 5z"/>
<path d="M1860 1768 c-28 -51 -45 -86 -37 -78 17 18 101 170 94 170 -3 0 -28
-42 -57 -92z"/>
<path d="M2845 1830 c9 -16 18 -30 21 -30 2 0 -2 14 -11 30 -9 17 -18 30 -21
30 -2 0 2 -13 11 -30z"/>
<path d="M3310 1843 c0 -6 8 -17 18 -24 16 -13 16 -13 2 6 -8 11 -16 22 -17
24 -2 2 -3 0 -3 -6z"/>
<path d="M3105 1810 c9 -16 18 -30 21 -30 2 0 -2 14 -11 30 -9 17 -18 30 -21
30 -2 0 2 -13 11 -30z"/>
<path d="M1660 1810 c-6 -11 -8 -20 -6 -20 3 0 10 9 16 20 6 11 8 20 6 20 -3
0 -10 -9 -16 -20z"/>
<path d="M2650 1825 c0 -5 5 -17 10 -25 5 -8 10 -10 10 -5 0 6 -5 17 -10 25
-5 8 -10 11 -10 5z"/>
<path d="M2135 1809 c-4 -6 -5 -12 -2 -15 2 -3 7 2 10 11 7 17 1 20 -8 4z"/>
<path d="M3345 1780 c10 -11 20 -20 23 -20 3 0 -3 9 -13 20 -10 11 -20 20 -23
20 -3 0 3 -9 13 -20z"/>
<path d="M1630 1760 c-6 -11 -8 -20 -6 -20 3 0 10 9 16 20 6 11 8 20 6 20 -3
0 -10 -9 -16 -20z"/>
<path d="M2096 1743 c-18 -38 -18 -38 2 -18 11 11 18 23 15 28 -2 4 1 7 6 7 6
0 11 5 11 10 0 22 -17 8 -34 -27z"/>
<path d="M2685 1761 c-3 -5 -2 -12 3 -15 5 -3 9 1 9 9 0 17 -3 19 -12 6z"/>
<path d="M3141 1750 c14 -31 19 -36 19 -24 0 6 -7 19 -16 30 -14 18 -14 18 -3
-6z"/>
<path d="M1599 1708 c-7 -13 -19 -34 -27 -48 -14 -24 -13 -24 3 -5 20 24 48
75 41 75 -3 0 -11 -10 -17 -22z"/>
<path d="M2700 1728 c0 -12 42 -79 47 -74 3 2 -7 22 -21 43 -14 20 -26 35 -26
31z"/>
<path d="M3374 1718 c-4 -7 -4 -10 1 -6 4 4 14 0 22 -10 13 -15 13 -15 3 6
-12 25 -16 27 -26 10z"/>
<path d="M2290 1705 c-7 -9 -11 -17 -9 -20 3 -2 10 5 17 15 14 24 10 26 -8 5z"/>
<path d="M3166 1698 c3 -5 10 -6 15 -3 13 9 11 12 -6 12 -8 0 -12 -4 -9 -9z"/>
<path d="M2060 1680 c-6 -11 -8 -20 -6 -20 3 0 10 9 16 20 6 11 8 20 6 20 -3
0 -10 -9 -16 -20z"/>
<path d="M2920 1696 c0 -2 8 -10 18 -17 15 -13 16 -12 3 4 -13 16 -21 21 -21
13z"/>
<path d="M3186 1667 c3 -10 9 -15 12 -12 3 3 0 11 -7 18 -10 9 -11 8 -5 -6z"/>
<path d="M1791 1643 c-10 -26 -10 -27 4 -9 8 11 15 23 15 28 0 15 -7 8 -19
-19z"/>
<path d="M2255 1660 c-3 -6 1 -7 9 -4 18 7 21 14 7 14 -6 0 -13 -4 -16 -10z"/>
<path d="M3416 1661 c-3 -5 1 -11 9 -14 9 -4 12 -1 8 9 -6 16 -10 17 -17 5z"/>
<path d="M2029 1623 c-13 -16 -12 -17 4 -4 9 7 17 15 17 17 0 8 -8 3 -21 -13z"/>
<path d="M2239 1618 c-7 -13 -19 -34 -27 -48 -14 -24 -13 -24 3 -5 20 24 48
75 41 75 -3 0 -11 -10 -17 -22z"/>
<path d="M3211 1623 c7 -12 15 -20 18 -17 3 2 -3 12 -13 22 -17 16 -18 16 -5
-5z"/>
<path d="M1531 1594 c-12 -19 -16 -32 -11 -29 11 7 43 65 36 65 -2 0 -13 -16
-25 -36z"/>
<path d="M3440 1623 c0 -6 8 -17 18 -24 16 -13 16 -13 2 6 -8 11 -16 22 -17
24 -2 2 -3 0 -3 -6z"/>
<path d="M2770 1600 c6 -11 13 -20 16 -20 2 0 0 9 -6 20 -6 11 -13 20 -16 20
-2 0 0 -9 6 -20z"/>
<path d="M2979 1602 c6 -12 16 -24 22 -28 8 -4 8 -1 0 14 -6 12 -16 24 -22 28
-8 4 -8 1 0 -14z"/>
<path d="M1765 1599 c-4 -6 -5 -12 -2 -15 2 -3 7 2 10 11 7 17 1 20 -8 4z"/>
<path d="M2000 1580 c-6 -11 -8 -20 -6 -20 3 0 10 9 16 20 6 11 8 20 6 20 -3
0 -10 -9 -16 -20z"/>
<path d="M3251 1555 c12 -22 26 -44 32 -50 15 -16 -20 48 -38 70 -9 11 -7 2 6
-20z"/>
<path d="M3473 1573 c2 -5 24 -41 47 -82 l44 -74 -23 -19 c-13 -10 -22 -21
-19 -23 2 -3 15 6 28 20 l23 24 -48 80 c-26 45 -49 81 -52 81 -2 0 -2 -3 0 -7z"/>
<path d="M1736 1543 c-6 -14 -5 -15 5 -6 7 7 10 15 7 18 -3 3 -9 -2 -12 -12z"/>
<path d="M3010 1554 c0 -13 18 -39 24 -34 2 3 -2 14 -10 24 -8 11 -14 16 -14
10z"/>
<path d="M2177 1517 c-9 -11 -17 -25 -17 -30 0 -6 10 2 21 17 12 15 20 29 17
31 -2 2 -11 -6 -21 -18z"/>
<path d="M2820 1510 c6 -11 13 -20 16 -20 2 0 0 9 -6 20 -6 11 -13 20 -16 20
-2 0 0 -9 6 -20z"/>
<path d="M1710 1500 c-6 -11 -8 -20 -6 -20 3 0 10 9 16 20 6 11 8 20 6 20 -3
0 -10 -9 -16 -20z"/>
<path d="M1954 1499 c-3 -6 -2 -15 3 -20 5 -5 9 -1 9 11 0 23 -2 24 -12 9z"/>
<path d="M1470 1490 c0 -5 5 -10 11 -10 5 0 7 5 4 10 -3 6 -8 10 -11 10 -2 0
-4 -4 -4 -10z"/>
<path d="M2143 1475 c4 -5 0 -19 -9 -33 -8 -13 -14 -25 -12 -28 2 -2 12 10 21
26 14 22 15 30 5 36 -7 4 -10 3 -5 -1z"/>
<path d="M1444 1445 c-18 -27 -13 -40 19 -56 20 -9 19 -8 -2 9 -24 19 -24 21
-8 46 10 14 15 26 12 26 -2 0 -12 -11 -21 -25z"/>
<path d="M1686 1453 c-6 -14 -5 -15 5 -6 7 7 10 15 7 18 -3 3 -9 -2 -12 -12z"/>
<path d="M1933 1458 c-23 -30 -24 -41 -2 -21 12 12 20 25 17 28 -3 3 -10 0
-15 -7z"/>
<path d="M2860 1440 c6 -11 13 -20 16 -20 2 0 0 9 -6 20 -6 11 -13 20 -16 20
-2 0 0 -9 6 -20z"/>
<path d="M3330 1410 c6 -11 12 -20 14 -20 2 0 2 9 -1 20 -3 11 -9 20 -15 20
-5 0 -4 -9 2 -20z"/>
<path d="M3371 1343 c11 -24 26 -43 33 -42 7 0 7 2 -1 6 -7 2 -13 10 -13 16 0
7 -10 23 -21 37 -19 24 -19 23 2 -17z"/>
<path d="M2086 1353 c-6 -14 -5 -15 5 -6 7 7 10 15 7 18 -3 3 -9 -2 -12 -12z"/>
<path d="M3490 1361 c0 -7 -5 -9 -10 -6 -6 4 -9 1 -8 -7 2 -7 -3 -12 -9 -10
-7 1 -13 -4 -13 -11 0 -7 -12 -20 -27 -29 -16 -10 -23 -18 -17 -18 18 0 100
77 92 86 -5 4 -8 2 -8 -5z"/>
<path d="M1540 1320 c24 -22 47 -40 52 -40 5 0 -12 18 -37 40 -25 22 -49 40
-52 40 -4 0 13 -18 37 -40z"/>
<path d="M1619 1338 c-7 -13 -17 -26 -23 -30 -8 -5 -7 -8 1 -8 7 0 19 14 28
30 9 17 13 30 11 30 -3 0 -11 -10 -17 -22z"/>
<path d="M3150 1325 c0 -6 7 -21 16 -33 8 -12 22 -35 30 -50 7 -15 14 -21 14
-14 0 6 -13 33 -30 60 -16 26 -30 42 -30 37z"/>
<path d="M2936 1307 c3 -10 9 -15 12 -12 3 3 0 11 -7 18 -10 9 -11 8 -5 -6z"/>
<path d="M1820 1264 c-12 -19 -21 -37 -18 -39 2 -2 14 14 26 36 28 49 22 52
-8 3z"/>
<path d="M1770 1181 c-14 -27 -13 -29 13 -41 21 -11 22 -11 2 5 -12 9 -16 19
-10 23 10 7 18 32 10 32 -2 0 -9 -9 -15 -19z"/>
<path d="M1985 1189 c-4 -6 -5 -12 -2 -15 2 -3 7 2 10 11 7 17 1 20 -8 4z"/>
<path d="M3045 1113 c8 -18 19 -33 23 -33 15 0 36 19 29 27 -5 4 -13 1 -18 -7
-7 -10 -12 -11 -15 -4 -3 6 -12 20 -20 30 -13 16 -13 14 1 -13z"/>
<path d="M1830 1121 c0 -5 7 -12 16 -15 14 -5 15 -4 4 9 -14 17 -20 19 -20 6z"/>
<path d="M3130 1120 c0 -5 7 -7 15 -4 8 4 15 8 15 10 0 2 -7 4 -15 4 -8 0 -15
-4 -15 -10z"/>
</g>
</svg>
